<?xml version="1.0" encoding="UTF-8"?>
<svg xmlns="http://www.w3.org/2000/svg" xmlns:xodm="http://www.corel.com/coreldraw/odm/2003" version="1.1" viewBox="0 0 1310.12 1224.19">
  <!-- Generator: Adobe Illustrator 29.5.1, SVG Export Plug-In . SVG Version: 2.1.0 Build 141)  -->
  <defs>
    <style>
      .st0 {
        fill: #fff;
      }

      .st1 {
        fill: #f7931a;
      }
    </style>
  </defs>
  <g id="Layer_1" image-rendering="optimizeQuality" shape-rendering="geometricPrecision" text-rendering="geometricPrecision">
    <g id="Layer_x5F_1">
      <g id="_1421344023328">
        <path class="st1" d="M1188.49,732.03c-72.12,289.29-365.12,465.34-654.45,393.2-289.2-72.12-465.26-365.14-393.1-654.41C213.03,181.51,506.03,5.44,795.26,77.56c289.3,72.12,465.35,365.17,393.22,654.48h0s0,0,0,0Z"/>
        <path class="st0" d="M902.82,524.47c10.75-71.86-43.96-110.49-118.78-136.26l24.27-97.34-59.26-14.77-23.63,94.78c-15.58-3.89-31.58-7.55-47.48-11.18l23.8-95.41-59.22-14.77-24.28,97.31c-12.89-2.94-25.55-5.84-37.84-8.89l.07-.31-81.72-20.41-15.76,63.29s43.96,10.08,43.04,10.7c24,5.99,28.33,21.87,27.61,34.46l-27.65,110.9c1.65.42,3.8,1.03,6.16,1.98-1.98-.49-4.08-1.03-6.26-1.55l-38.75,155.35c-2.93,7.29-10.38,18.23-27.15,14.08.59.86-43.07-10.75-43.07-10.75l-29.42,67.83,77.11,19.22c14.35,3.6,28.4,7.36,42.25,10.9l-24.52,98.46,59.19,14.77,24.28-97.41c16.17,4.39,31.86,8.44,47.22,12.26l-24.2,96.96,59.26,14.77,24.52-98.28c101.04,19.12,177.02,11.41,209-79.98,25.77-73.58-1.28-116.03-54.44-143.7,38.72-8.93,67.88-34.39,75.66-87h-.02s0,0,0,0ZM767.43,714.32c-18.31,73.58-142.2,33.81-182.37,23.83l32.54-130.44c40.16,10.03,168.97,29.87,149.83,106.61h0ZM785.76,523.4c-16.71,66.93-119.82,32.93-153.27,24.59l29.5-118.3c33.45,8.34,141.17,23.9,123.78,93.71h0Z"/>
      </g>
    </g>
  </g>
</svg>