<?xml version="1.0" encoding="UTF-8"?>
<svg id="Layer_1" xmlns="http://www.w3.org/2000/svg" version="1.1" viewBox="0 0 564.76 556">
  <!-- Generator: Adobe Illustrator 29.5.1, SVG Export Plug-In . SVG Version: 2.1.0 Build 141)  -->
  <defs>
    <style>
      .st0 {
        fill: #e9963d;
      }

      .st1 {
        fill: #fefdfc;
      }
    </style>
  </defs>
  <path class="st0" d="M447.74,446.32c-122.47,124.21-332.96,78.14-392.36-85.2C-11.68,176.72,161.01-4.92,348.59,52.26c169.97,51.81,224.37,267.06,99.15,394.06ZM304.91,137.61c-4.31-2.39-9.02-3.76-13.79-4.97-3.21-.81-13.02-4.07-14.52-.3l-5.7,22.25c-30.63-.95-60.54,11.78-74.59,40.02-22.21,44.66,2.29,74.93,39.39,97.45,16.54,10.04,40.95,19.07,55.31,30.79,9.96,8.12,8.47,24.27-4.45,26.87-15.39,3.09-44.09-5.62-49.48-22.14-.81-2.48-1.32-10.59-2.56-11.41l-69.72-17.53c-1.24-.34-2.27-.07-2.37,1.3,0,9.7-.69,19.37,1.27,28.91,4.42,21.5,18.76,39.64,36.57,51.77,1.76,1.2,12.15,7.06,12.39,7.75.29.84.12,1.72-.04,2.56-1.06,5.36-4.51,12.76-4.88,18.11-.14,1.98.51,2.54,2.21,3.27,2,.86,8.23,2.86,10.5,3.48s11.84,2.23,13.83,1.84c.81-.16.89-.24,1.3-.93,1.41-2.37,3.09-16.38,4.91-16.92,1.15-.34,14.2,3.78,16.84,4.28,2.05.4,4.28-.25,6.21.78.2,5.44-3.71,12.02-4.18,17.25-.15,1.64,1.22,2.46,2.57,3.09,1.68.77,6.36,2.36,8.26,2.92,2.78.81,11.29,2.65,13.91,2.75,1.05.04,3-.28,3.45-1.3l5.66-22.29c19.38-.69,38.29-4.97,53.41-17.59,24.83-20.74,35.64-53.76,20.82-83.96-16.18-32.97-58.05-45.28-87.34-63.05-6.57-3.99-17.42-10.43-16.34-19.15,2.7-21.91,45.26-12.2,51.72,5.57,1.05,2.89,1.05,9.81,3.06,10.91l68.4,17.18,1.38-.23c1.47-5.48,1.07-11.65.52-17.37-2.02-21.03-9.68-39.62-26.01-53.38-2.05-1.73-11.47-7.39-11.89-8.8-1.29-4.29,6.79-24.5,5.77-26.98-.52-1.26-6.27-3.38-7.87-3.9-3.34-1.07-16.1-4.13-18.87-3.28-.44.13-.68.37-.98.7-.79.88-3.81,14.06-4.3,16.39-.29,1.39.36,4.11-1.06,4.57l-23.45-6.64,4.73-20.62Z"/>
  <path class="st1" d="M304.91,137.61l-4.73,20.62,23.45,6.64c1.42-.45.76-3.18,1.06-4.57.49-2.33,3.51-15.51,4.3-16.39.29-.33.54-.56.98-.7,2.77-.85,15.53,2.21,18.87,3.28,1.61.51,7.36,2.64,7.87,3.9,1.02,2.48-7.06,22.69-5.77,26.98.42,1.41,9.84,7.07,11.89,8.8,16.33,13.76,23.99,32.35,26.01,53.38.55,5.73.95,11.89-.52,17.37l-1.38.23-68.4-17.18c-2.01-1.1-2.01-8.02-3.06-10.91-6.46-17.77-49.02-27.48-51.72-5.57-1.07,8.72,9.77,15.16,16.34,19.15,29.29,17.77,71.16,30.08,87.34,63.05,14.82,30.21,4.01,63.23-20.82,83.96-15.12,12.62-34.03,16.9-53.41,17.59l-5.66,22.29c-.45,1.03-2.4,1.34-3.45,1.3-2.62-.1-11.12-1.94-13.91-2.75-1.91-.55-6.59-2.14-8.26-2.92-1.35-.63-2.72-1.45-2.57-3.09.47-5.23,4.38-11.81,4.18-17.25-1.93-1.03-4.15-.38-6.21-.78-2.64-.51-15.69-4.62-16.84-4.28-1.82.54-3.5,14.55-4.91,16.92-.41.69-.49.77-1.3.93-1.99.39-11.5-1.21-13.83-1.84s-8.5-2.61-10.5-3.48c-1.7-.73-2.35-1.29-2.21-3.27.37-5.35,3.82-12.75,4.88-18.11.17-.84.33-1.72.04-2.56-.24-.69-10.63-6.55-12.39-7.75-17.81-12.13-32.14-30.27-36.57-51.77-1.96-9.54-1.27-19.22-1.27-28.91.1-1.37,1.13-1.64,2.37-1.3l69.72,17.53c1.25.82,1.75,8.93,2.56,11.41,5.39,16.52,34.09,25.23,49.48,22.14,12.92-2.59,14.41-18.75,4.45-26.87-14.36-11.72-38.77-20.75-55.31-30.79-37.1-22.52-61.6-52.78-39.39-97.45,14.05-28.24,43.96-40.97,74.59-40.02l5.7-22.25c1.5-3.77,11.31-.51,14.52.3,4.77,1.2,9.47,2.58,13.79,4.97Z"/>
</svg>